<?xml version='1.0' encoding='utf-8'?>
<!DOCTYPE svg PUBLIC '-//W3C//DTD SVG 1.1//EN' 'http://www.w3.org/Graphics/SVG/1.1/DTD/svg11.dtd'>
<!-- Uploaded to: SVG Repo, www.svgrepo.com, Generator: SVG Repo Mixer Tools -->
<svg fill="#000000" height="800px" width="800px" version="1.1" xmlns="http://www.w3.org/2000/svg" viewBox="0 0 512 512" xmlns:xlink="http://www.w3.org/1999/xlink" enable-background="new 0 0 512 512">
  <g>
    <g>
      <path d="m116.1,233.5c-5.4,33.8 23.6,41.9 35,41.9h313.9c35.5-3.2 37.5-32.2 35-41.9-9.4-36.9-40.5-65.9-79.8-76-8.7-49.1-55.7-86.8-112.1-86.8-0.4,0-0.9,0-1.3,0-18.2-35.2-57.5-59.7-103-59.7-56.5,0-103.5,37.7-112.1,86.8-39.4,10.1-70.5,39.1-79.8,76-2.5,9.8-1,40.1 35,41.9h75.7c-2.8,5.7-5.5,11.5-6.5,17.8zm191.9-122.2c39.9,0 72.4,27.7 72.8,62 0,0.2 0,0.4 0,0.5-0.4,10.6 7.5,19.8 18.1,21 26.8,3 49.2,18.6 58.6,40h-299c9.4-21.3 31.8-36.9 58.6-40 10.6-1.2 18.5-10.7 18.1-21.3 0.3-34.3 32.8-62.2 72.8-62.2zm-253.7,63.8c9.4-21.3 31.8-36.9 58.6-40 10.6-1.2 18.5-10.7 18.1-21.3 0.3-34.3 32.8-62.2 72.8-62.2 24.9,0 46.9,10.8 60,27.2-35.4,13.7-61.7,43.2-67.9,78.7-14.1,3.6-27.1,9.6-38.4,17.6h-103.2z"/>
      <path d="m367,335.4c0-28.9-23.6-52.5-52.7-52.5-11.3,0-20.5,9.1-20.5,20.4 0,11.3 9.2,20.4 20.5,20.4 6.4,0 11.7,5.2 11.7,11.6s-5.2,11.6-11.7,11.6h-218.9c-11.3,0-20.5,9.1-20.5,20.4s9.2,20.4 20.5,20.4h218.9c29,0.2 52.7-23.3 52.7-52.3z"/>
      <path d="m453.9,407.2h-180.8c-11.3,0-20.5,9.1-20.5,20.4 0,11.3 9.2,20.4 20.5,20.4h180.8c3.3,0 6.1,2.7 6.1,6s-2.7,6-6.1,6c-11.3,0-20.5,9.1-20.5,20.4s9.2,20.4 20.5,20.4c26,0 47.1-21 47.1-46.9-5.68434e-14-25.7-21.1-46.7-47.1-46.7z"/>
    </g>
  </g>
</svg>